<svg id="wfia000_ic_b-home-refi-fill-b" xmlns="http://www.w3.org/2000/svg" viewBox="0 0 18 16.45"><defs><style>.cls-1{fill:#81b3c5;}</style></defs><title>wfi000_ic_d-home-refi-fill_svg</title><path class="cls-1" d="M17.58,8.09l-2.14-2V2.37a1,1,0,0,0-1.06-1H13.28a1,1,0,0,0-1.06,1V3.11l-2-1.87a1.8,1.8,0,0,0-2.42,0L0.42,8.09a0.89,0.89,0,0,0-.37,1,0.94,0.94,0,0,0,1,.49H2.77v6.64a1,1,0,0,0,1.06,1H14.38a1,1,0,0,0,1.06-1V9.58H17a0.94,0.94,0,0,0,1-.49A0.89,0.89,0,0,0,17.58,8.09Zm-3.15,0-1.63,2L12.39,10C10.87,9.46,10,9.13,9.84,9a0.6,0.6,0,0,1,.62-1C10.58,8,11,8.22,11.6,8.44A2.83,2.83,0,1,0,11,11a0.6,0.6,0,0,1,.91.79,4.06,4.06,0,1,1,.88-3.52l0.69-.86A0.6,0.6,0,1,1,14.43,8.13Z" transform="translate(0 -0.77)"/></svg>